<svg width="14" height="16" viewBox="0 0 14 16" fill="none" xmlns="http://www.w3.org/2000/svg">
<path d="M4.9 0C4.1268 0 3.5 0.651222 3.5 1.45455V2.18182H2.1H0.7C0.313401 2.18182 0 2.50743 0 2.90909C0 3.31075 0.313401 3.63636 0.7 3.63636H1.4V13.8182C1.4 15.0232 2.3402 16 3.5 16H10.5C11.6598 16 12.6 15.0232 12.6 13.8182V3.63636H13.3C13.6866 3.63636 14 3.31075 14 2.90909C14 2.50743 13.6866 2.18182 13.3 2.18182H11.9H10.5V1.45455C10.5 0.651222 9.8732 0 9.1 0H4.9ZM9.1 2.18182H4.9V1.45455H9.1V2.18182ZM4.2 3.63636H9.8H11.2V13.8182C11.2 14.2198 10.8866 14.5455 10.5 14.5455H3.5C3.1134 14.5455 2.8 14.2198 2.8 13.8182V3.63636H4.2ZM6.3 7.27273C6.3 6.87107 5.9866 6.54545 5.6 6.54545C5.2134 6.54545 4.9 6.87107 4.9 7.27273V10.9091C4.9 11.3108 5.2134 11.6364 5.6 11.6364C5.9866 11.6364 6.3 11.3108 6.3 10.9091V7.27273ZM8.4 6.54545C8.7866 6.54545 9.1 6.87107 9.1 7.27273V10.9091C9.1 11.3108 8.7866 11.6364 8.4 11.6364C8.0134 11.6364 7.7 11.3108 7.7 10.9091V7.27273C7.7 6.87107 8.0134 6.54545 8.4 6.54545Z" fill="#F12727"/>
</svg>
