<svg width="14" height="14" viewBox="0 0 14 14" fill="none" xmlns="http://www.w3.org/2000/svg">
<path d="M4.08317 5.10419H2.33317C1.4465 5.10419 0.729004 4.38669 0.729004 3.50002V2.33335C0.729004 1.44669 1.4465 0.729187 2.33317 0.729187H4.08317C4.96984 0.729187 5.68734 1.44669 5.68734 2.33335V3.50002C5.68734 4.38669 4.96984 5.10419 4.08317 5.10419ZM2.33317 1.60419C1.93067 1.60419 1.604 1.93085 1.604 2.33335V3.50002C1.604 3.90252 1.93067 4.22919 2.33317 4.22919H4.08317C4.48567 4.22919 4.81234 3.90252 4.81234 3.50002V2.33335C4.81234 1.93085 4.48567 1.60419 4.08317 1.60419H2.33317Z" fill="#DDDDDD"/>
<path d="M12.1335 4.52083H10.0335C9.40349 4.52083 8.896 4.00749 8.896 3.38333V2.45001C8.896 1.82001 9.40933 1.3125 10.0335 1.3125H12.1335C12.7635 1.3125 13.271 1.82584 13.271 2.45001V3.38333C13.271 4.01333 12.7635 4.52083 12.1335 4.52083ZM10.0335 2.1875C9.89349 2.1875 9.771 2.31001 9.771 2.45001V3.38333C9.771 3.52333 9.89349 3.64583 10.0335 3.64583H12.1335C12.2735 3.64583 12.396 3.52333 12.396 3.38333V2.45001C12.396 2.31001 12.2735 2.1875 12.1335 2.1875H10.0335Z" fill="#DDDDDD"/>
<path d="M12.1335 8.89583H10.0335C9.40349 8.89583 8.896 8.38249 8.896 7.75833V6.82501C8.896 6.19501 9.40933 5.6875 10.0335 5.6875H12.1335C12.7635 5.6875 13.271 6.20084 13.271 6.82501V7.75833C13.271 8.38833 12.7635 8.89583 12.1335 8.89583ZM10.0335 6.5625C9.89349 6.5625 9.771 6.68501 9.771 6.82501V7.75833C9.771 7.89833 9.89349 8.02083 10.0335 8.02083H12.1335C12.2735 8.02083 12.396 7.89833 12.396 7.75833V6.82501C12.396 6.68501 12.2735 6.5625 12.1335 6.5625H10.0335Z" fill="#DDDDDD"/>
<path d="M9.33333 3.35419H5.25C5.01083 3.35419 4.8125 3.15585 4.8125 2.91669C4.8125 2.67752 5.01083 2.47919 5.25 2.47919H9.33333C9.5725 2.47919 9.77083 2.67752 9.77083 2.91669C9.77083 3.15585 9.5725 3.35419 9.33333 3.35419Z" fill="#DDDDDD"/>
<path d="M9.33317 12.1042H8.45817C7.5715 12.1042 6.854 11.3867 6.854 10.5V2.91669C6.854 2.67752 7.05234 2.47919 7.2915 2.47919C7.53067 2.47919 7.729 2.67752 7.729 2.91669V10.5C7.729 10.9025 8.05567 11.2292 8.45817 11.2292H9.33317C9.57234 11.2292 9.77067 11.4275 9.77067 11.6667C9.77067 11.9059 9.57234 12.1042 9.33317 12.1042Z" fill="#DDDDDD"/>
<path d="M9.33317 7.72919H7.2915C7.05234 7.72919 6.854 7.53085 6.854 7.29169C6.854 7.05252 7.05234 6.85419 7.2915 6.85419H9.33317C9.57234 6.85419 9.77067 7.05252 9.77067 7.29169C9.77067 7.53085 9.57234 7.72919 9.33317 7.72919Z" fill="#DDDDDD"/>
<path d="M12.1335 13.2708H10.0335C9.40349 13.2708 8.896 12.7575 8.896 12.1333V11.2C8.896 10.57 9.40933 10.0625 10.0335 10.0625H12.1335C12.7635 10.0625 13.271 10.5758 13.271 11.2V12.1333C13.271 12.7633 12.7635 13.2708 12.1335 13.2708ZM10.0335 10.9375C9.89349 10.9375 9.771 11.06 9.771 11.2V12.1333C9.771 12.2733 9.89349 12.3958 10.0335 12.3958H12.1335C12.2735 12.3958 12.396 12.2733 12.396 12.1333V11.2C12.396 11.06 12.2735 10.9375 12.1335 10.9375H10.0335Z" fill="#DDDDDD"/>
</svg>
