<svg width="12" height="16" viewBox="0 0 12 16" fill="none" xmlns="http://www.w3.org/2000/svg">
<path d="M6.00022 6.85718C6.30022 6.85718 6.54568 7.11318 6.54568 7.42861V9.14289H8.18204C8.48204 9.14289 8.72749 9.39889 8.72749 9.71432C8.72749 10.0297 8.48204 10.2857 8.18204 10.2857H6.54568V12C6.54568 12.3155 6.30022 12.5715 6.00022 12.5715C5.70022 12.5715 5.45477 12.3155 5.45477 12V10.2857H3.8184C3.5184 10.2857 3.27295 10.0297 3.27295 9.71432C3.27295 9.39889 3.5184 9.14289 3.8184 9.14289H5.45477V7.42861C5.45477 7.11318 5.70022 6.85718 6.00022 6.85718Z" fill="#DDDDDD"/>
<path fill-rule="evenodd" clip-rule="evenodd" d="M4.36364 0C4.21636 0 4.08002 0.060017 3.97639 0.167446L0.158203 4.16745C0.0600213 4.2743 0 4.42 0 4.57143V13.1429C0 14.7206 1.22182 16 2.72727 16H9.27273C10.7782 16 12 14.7206 12 13.1429V2.85714C12 1.27943 10.7782 0 9.27273 0H4.36364ZM4.36364 4.57143V1.37943L1.31456 4.57143H4.36364ZM4.90909 5.71429H1.09091V13.1429C1.09091 14.0897 1.82182 14.8571 2.72727 14.8571H9.27273C10.1782 14.8571 10.9091 14.0897 10.9091 13.1429V2.85714C10.9091 1.91029 10.1782 1.14286 9.27273 1.14286H5.45455V5.14286C5.45455 5.45829 5.20909 5.71429 4.90909 5.71429Z" fill="#DDDDDD"/>
</svg>
